#!OML:ASF E:\motion texture\Top Level 1\Subject 1\Session 1\male.ASF
:FULLY-SPECIFIED
:DEGREES
308
root 4.55557 17.8047 0.962228 536.033 -88.4918 -531.554
lowerback -0.479117 -3.78812 0.790775
upperback -3.30956 -5.06789 1.08639
thorax -3.10223 -2.55575 0.788282
lowerneck -16.8192 -9.34668 -8.60938
upperneck 12.3776 -12.158 8.78185
head 7.63543 -5.49824 2.77974
rclavicle 1.0871e-014 1.78906e-015
rhumerus 58.2695 -50.9499 -51.4302
rradius 97.5761
rwrist 17.5969
rhand -38.3135 -68.3982
rfingers 7.12502
rthumb -11.3416 -261.928
lclavicle 1.0871e-014 1.78906e-015
lhumerus -21.0914 -2.4225 62.5594
lradius 50.6485
lwrist -9.04744
lhand -14.067 18.5511
lfingers 7.12502
lthumb 12.0645 48.1833
rfemur -30.1029 1.08529 18.2707
rtibia 19.0675
rfoot -1.8811 -14.7376
rtoes 7.65478
lfemur 1.72837 -6.22299 -21.6393
ltibia 23.5536
lfoot -12.931 -2.87756
ltoes -13.9758
309
root 4.41366 17.8071 0.934164 524.717 -88.6479 -520.205
lowerback -0.579225 -3.70909 0.934897
upperback -3.3046 -4.9622 1.10501
thorax -3.05196 -2.50709 0.717988
lowerneck -16.7557 -9.53405 -8.8239
upperneck 12.1885 -12.3752 8.91676
head 7.60502 -5.60419 2.82941
rclavicle 3.16316e-014 -4.77083e-015
rhumerus 56.1912 -49.4036 -49.6255
rradius 96.1857
rwrist 18.0194
rhand -37.0205 -69.8735
rfingers 7.12502
rthumb -10.0944 -260.389
lclavicle 3.16316e-014 -4.77083e-015
lhumerus -20.699 -2.73988 62.9512
lradius 50.6662
lwrist -9.24455
lhand -14.0742 18.3168
lfingers 7.12502
lthumb 12.0576 47.9494
rfemur -29.8333 1.01217 18.6052
rtibia 18.8362
rfoot -1.72574 -14.7067
rtoes 8.23818
lfemur 1.62036 -6.16946 -21.2229
ltibia 24.3706
lfoot -12.4999 -3.16332
ltoes -14.5264
310
root 4.27141 17.8106 0.905951 510.798 -88.7262 -506.255
lowerback -0.676389 -3.63106 1.09232
upperback -3.29668 -4.85792 1.1295
thorax -3.00049 -2.45929 0.646679
lowerneck -16.6863 -9.71682 -9.03601
upperneck 11.9912 -12.5873 9.05525
head 7.57137 -5.70765 2.88071
rclavicle -3.50731e-014 9.93923e-016
rhumerus 54.0963 -47.7706 -47.7692
rradius 94.6773
rwrist 18.3785
rhand -35.4908 -71.0907
rfingers 7.12502
rthumb -8.61846 -259.105
lclavicle -3.50731e-014 9.93923e-016
lhumerus -20.3603 -3.05356 63.3381
lradius 50.7008
lwrist -9.44709
lhand -14.0752 18.087
lfingers 7.12502
lthumb 12.0566 47.7197
rfemur -29.5477 0.931998 18.9658
rtibia 18.6657
rfoot -1.5858 -14.6586
rtoes 8.85424
lfemur 1.46813 -6.10206 -20.7816
ltibia 25.2429
lfoot -11.997 -3.45408
ltoes -15.0103
311
root 4.12887 17.815 0.877574 495.825 -88.7094 -491.255
lowerback -0.770748 -3.5518 1.26347
upperback -3.28079 -4.75209 1.15744
thorax -2.94275 -2.41085 0.57135
lowerneck -16.6328 -9.89848 -9.23965
upperneck 11.7923 -12.7989 9.19647
head 7.54032 -5.80985 2.93087
rclavicle 2.4991e-014 -1.72943e-014
rhumerus 52.0037 -46.0595 -45.8809
rradius 93.0621
rwrist 18.6703
rhand -33.7182 -71.9582
rfingers 7.12502
rthumb -6.90753 -258.175
lclavicle 2.4991e-014 -1.72943e-014
lhumerus -20.0608 -3.36698 63.7187
lradius 50.7498
lwrist -9.6518
lhand -14.0721 17.862
lfingers 7.12502
lthumb 12.0596 47.4945
rfemur -29.2453 0.844035 19.3511
rtibia 18.549
rfoot -1.46355 -14.5929
rtoes 9.49581
lfemur 1.26996 -6.0226 -20.3156
ltibia 26.1699
lfoot -11.4261 -3.74782
ltoes -15.437
312
root 3.98614 17.8203 0.849041 482.141 -88.5963 -477.548
lowerback -0.862023 -3.47352 1.44452
upperback -3.26142 -4.64778 1.19171
thorax -2.88297 -2.36319 0.497318
lowerneck -16.5741 -10.0756 -9.44144
upperneck 11.5855 -13.0052 9.34093
head 7.5062 -5.90948 2.98265
rclavicle 2.19781e-014 -9.14409e-015
rhumerus 49.9279 -44.254 -43.9773
rradius 91.3544
rwrist 18.8953
rhand -31.7143 -72.4118
rfingers 7.12502
rthumb -4.97285 -257.667
lclavicle 2.19781e-014 -9.14409e-015
lhumerus -19.8145 -3.67196 64.0939
lradius 50.8139
lwrist -9.86005
lhand -14.0685 17.6386
lfingers 7.12502
lthumb 12.0631 47.2709
rfemur -28.9278 0.749723 19.7591
rtibia 18.4818
rfoot -1.36389 -14.511
rtoes 10.1758
lfemur 1.02494 -5.93062 -19.8269
ltibia 27.1505
lfoot -10.7912 -4.03746
ltoes -15.8112
313
root 3.84328 17.8266 0.820372 471.143 -88.4049 -466.53
lowerback -0.947948 -3.3959 1.63493
upperback -3.23959 -4.54458 1.2312
thorax -2.82351 -2.3161 0.423954
lowerneck -16.5062 -10.2487 -9.64136
upperneck 11.3692 -13.2073 9.48925
head 7.46797 -6.00724 3.03628
rclavicle 3.99433e-015 5.1684e-015
rhumerus 47.8805 -42.3519 -42.0743
rradius 89.5738
rwrist 19.052
rhand -29.4856 -72.4146
rfingers 7.12502
rthumb -2.82072 -257.624
lclavicle 3.99433e-015 5.1684e-015
lhumerus -19.6218 -3.9694 64.4626
lradius 50.8925
lwrist -10.0702
lhand -14.0586 17.4279
lfingers 7.12502
lthumb 12.0726 47.0597
rfemur -28.5939 0.649568 20.1873
rtibia 18.4549
rfoot -1.28376 -14.4114
rtoes 10.8818
lfemur 0.733088 -5.82653 -19.3182
ltibia 28.1821
lfoot -10.0947 -4.31668
ltoes -16.1296
314
root 3.70034 17.8339 0.791588 462.968 -88.1578 -458.336
lowerback -1.02805 -3.3201 1.83141
upperback -3.21987 -4.44407 1.27738
thorax -2.769 -2.27036 0.354799
lowerneck -16.4117 -10.4151 -9.84185
upperneck 11.1391 -13.4017 9.64032
head 7.4211 -6.10238 3.09307
rclavicle -1.5294e-014 1.88845e-014
rhumerus 45.8732 -40.3411 -40.1909
rradius 87.7436
rwrist 19.1386
rhand -27.0591 -71.9436
rfingers 7.12502
rthumb -0.477155 -258.077
lclavicle -1.5294e-014 1.88845e-014
lhumerus -19.4965 -4.25486 64.8251
lradius 50.987
lwrist -10.2819
lhand -14.0447 17.229
lfingers 7.12502
lthumb 12.086 46.86
rfemur -28.2442 0.546269 20.6332
rtibia 18.4619
rfoot -1.21803 -14.292
rtoes 11.5953
lfemur 0.394496 -5.70851 -18.7916
ltibia 29.2619
lfoot -9.34088 -4.5786
ltoes -16.3842
315
root 3.5574 17.842 0.762704 457.007 -87.874 -452.361
lowerback -1.10304 -3.24391 2.0344
upperback -3.1967 -4.34333 1.32757
thorax -2.71351 -2.22446 0.286503
lowerneck -16.3154 -10.5783 -10.0367
upperneck 10.9043 -13.5933 9.79229
head 7.37255 -6.19607 3.14972
rclavicle 2.13445e-014 -4.96962e-015
rhumerus 43.9174 -38.2351 -38.3426
rradius 85.8893
rwrist 19.1574
rhand -24.4672 -71.0017
rfingers 7.12502
rthumb 2.02619 -259.028
lclavicle 2.13445e-014 -4.96962e-015
lhumerus -19.4211 -4.53069 65.1802
lradius 51.0933
lwrist -10.495
lhand -14.0265 17.0398
lfingers 7.12502
lthumb 12.1036 46.6698
rfemur -27.8784 0.440387 21.0945
rtibia 18.4951
rfoot -1.16906 -14.1544
rtoes 12.3262
lfemur 0.00862344 -5.57844 -18.2491
ltibia 30.3865
lfoot -8.53428 -4.8197
ltoes -16.575
316
root 3.41453 17.851 0.733747 452.681 -87.5664 -448.021
lowerback -1.17088 -3.16724 2.2429
upperback -3.17164 -4.24218 1.38083
thorax -2.65979 -2.17831 0.218845
lowerneck -16.2159 -10.738 -10.2274
upperneck 10.6667 -13.7817 9.94604
head 7.32289 -6.28821 3.20682
rclavicle 1.56605e-014 3.97569e-016
rhumerus 42.0183 -36.0341 -36.5435
rradius 84.0356
rwrist 19.1172
rhand -21.7725 -69.6288
rfingers 7.12502
rthumb 4.62848 -260.442
lclavicle 1.56605e-014 3.97569e-016
lhumerus -19.3963 -4.79562 65.5274
lradius 51.2099
lwrist -10.7091
lhand -14.0067 16.8638
lfingers 7.12502
lthumb 12.1227 46.4926
rfemur -27.4967 0.333958 21.5682
rtibia 18.5472
rfoot -1.1318 -13.9977
rtoes 13.0639
lfemur -0.424459 -5.43653 -17.6933
ltibia 31.5523
lfoot -7.68202 -5.03609
ltoes -16.7014
317
root 3.2718 17.8607 0.704747 449.535 -87.2436 -444.865
lowerback -1.2321 -3.08916 2.4554
upperback -3.14443 -4.13938 1.43673
thorax -2.60716 -2.13125 0.152147
lowerneck -16.1122 -10.8946 -10.4145
upperneck 10.4252 -13.9673 10.1026
head 7.27169 -6.37903 3.26477
rclavicle 7.72775e-015 -5.26779e-015
rhumerus 40.1815 -33.743 -34.8058
rradius 82.2122
rwrist 19.0189
rhand -19.0343 -67.8824
rfingers 7.12502
rthumb 7.27205 -262.263
lclavicle 7.72775e-015 -5.26779e-015
lhumerus -19.4193 -5.04877 65.8672
lradius 51.3339
lwrist -10.9236
lhand -13.988 16.699
lfingers 7.12502
lthumb 12.1407 46.3268
rfemur -27.0995 0.229923 22.0522
rtibia 18.6115
rfoot -1.10423 -13.8231
rtoes 13.8047
lfemur -0.90385 -5.28231 -17.1268
ltibia 32.7535
lfoot -6.79101 -5.22427
ltoes -16.7651
318
root 3.12927 17.8712 0.675751 447.248 -86.9119 -442.567
lowerback -1.28812 -3.00957 2.67086
upperback -3.11469 -4.03488 1.49435
thorax -2.55439 -2.08324 0.0859043
lowerneck -16.0038 -11.0478 -10.5988
upperneck 10.1804 -14.1502 10.2638
head 7.21935 -6.46842 3.32434
rclavicle 2.92462e-014 -1.92821e-014
rhumerus 38.4138 -31.3671 -33.148
rradius 80.4453
rwrist 18.8721
rhand -16.3195 -65.8335
rfingers 7.12502
rthumb 9.89191 -264.419
lclavicle 2.92462e-014 -1.92821e-014
lhumerus -19.4902 -5.28944 66.1979
lradius 51.4655
lwrist -11.1362
lhand -13.977 16.5409
lfingers 7.12502
lthumb 12.1513 46.168
rfemur -26.687 0.129705 22.5438
rtibia 18.6801
rfoot -1.08748 -13.6333
rtoes 14.5527
lfemur -1.42879 -5.11594 -16.5526
ltibia 33.9853
lfoot -5.86969 -5.3813
ltoes -16.7543
319
root 2.98701 17.8824 0.646778 445.572 -86.5742 -440.882
lowerback -1.33732 -2.92853 2.8892
upperback -3.08278 -3.92864 1.55347
thorax -2.50277 -2.03426 0.0200622
lowerneck -15.8913 -11.1977 -10.7809
upperneck 9.93451 -14.3303 10.4291
head 7.16664 -6.5564 3.38535
rclavicle -3.73342e-015 4.77083e-015
rhumerus 36.7186 -28.9156 -31.5828
rradius 78.7592
rwrist 18.6833
rhand -13.6989 -63.5629
rfingers 7.12502
rthumb 12.4194 -266.826
lclavicle -3.73342e-015 4.77083e-015
lhumerus -19.6072 -5.51631 66.5199
lradius 51.602
lwrist -11.3458
lhand -13.9696 16.3912
lfingers 7.12502
lthumb 12.1584 46.0179
rfemur -26.258 0.0368987 23.041
rtibia 18.747
rfoot -1.08211 -13.4336
rtoes 15.2973
lfemur -1.99749 -4.93881 -15.9719
ltibia 35.242
lfoot -4.92946 -5.50585
ltoes -16.6968
